<svg width="741" height="174" viewBox="0 0 741 174" fill="none" xmlns="http://www.w3.org/2000/svg">
<path fill-rule="evenodd" clip-rule="evenodd" d="M114.985 83.0977L115 55.1333C115 55.0744 114.993 55.0155 114.985 54.9566L115 19.8393C115 18.4558 114.216 17.3298 113.248 17.3298H105.86C105.237 17.3151 104.651 17.6389 104.321 18.1688L97.3212 29.2588C96.3391 30.8116 95.0491 31.886 93.6198 32.3349L2.89516 60.314C0 61.3517 0 64.104 0 65.3697V94.2319C0 94.2834 0.014659 94.3349 0.014659 94.3864H0C0 94.3864 0 98.353 0 99.4274V135.965V164.827C0 166.211 0.791587 167.329 1.75908 167.329H9.15456C9.77757 167.329 10.3566 167.006 10.6938 166.476L17.6861 155.371C18.6683 153.818 19.9583 152.736 21.3875 152.287L112.977 123.366C113.204 123.293 113.417 123.16 113.6 122.976H113.607C114.414 122.719 114.985 121.703 114.985 120.526L115 83.2596C115 83.1565 115 83.105 114.985 83.0829V83.0977ZM21.3875 81.6994L100.097 56.8458C100.986 56.5653 101.741 57.545 101.244 58.333L96.9401 65.1563C96.2071 66.319 95.2323 67.1285 94.1622 67.467L15.0036 92.3421C14.116 92.621 13.3619 91.6429 13.8574 90.8555L17.6788 84.7829C18.6609 83.2301 19.9509 82.1483 21.3802 81.6994H21.3875ZM93.6125 102.93L15.0057 127.635C14.1178 127.914 13.3637 126.936 13.8597 126.148L18.0599 119.481C18.7929 118.318 19.7677 117.509 20.8378 117.17L100.095 92.1407C100.984 91.8601 101.739 92.8404 101.242 93.6283L97.3139 99.8469C96.3318 101.4 95.0418 102.474 93.6125 102.923V102.93Z" fill="#010101"/>
<path d="M189.36 152.66V0H252.17C261.77 0 270.23 1.93 277.58 5.78C284.92 9.63 290.67 15.05 294.81 22.03C298.95 29.01 301.03 37.3 301.03 46.89V49.94C301.03 59.39 298.88 67.64 294.6 74.69C290.31 81.74 284.49 87.2 277.15 91.05C269.81 94.9 261.48 96.83 252.18 96.83H218.16V152.66H189.37H189.36ZM218.15 70.66H249.34C256.17 70.66 261.7 68.77 265.91 64.99C270.12 61.21 272.23 56.05 272.23 49.51V47.33C272.23 40.79 270.12 35.63 265.91 31.85C261.69 28.07 256.17 26.18 249.34 26.18H218.15V70.67V70.66Z" fill="#010101"/>
<path d="M317.16 152.66V44.49H344.2V56.7H348.13C349.73 52.34 352.38 49.14 356.09 47.1C359.8 45.07 364.12 44.05 369.07 44.05H382.16V68.48H368.64C361.66 68.48 355.92 70.3301 351.41 74.0401C346.9 77.75 344.65 83.45 344.65 91.16V152.66H317.17H317.16Z" fill="#010101"/>
<path d="M446.27 155.71C435.51 155.71 425.84 153.53 417.26 149.17C408.68 144.81 401.92 138.48 396.98 130.2C392.04 121.91 389.57 111.96 389.57 100.32V96.8299C389.57 85.1999 392.04 75.2399 396.98 66.9499C401.92 58.6599 408.68 52.3399 417.26 47.9799C425.84 43.6199 435.5 41.4399 446.27 41.4399C457.04 41.4399 466.69 43.6199 475.27 47.9799C483.85 52.3399 490.61 58.6699 495.55 66.9499C500.49 75.2399 502.96 85.1999 502.96 96.8299V100.32C502.96 111.95 500.49 121.91 495.55 130.2C490.61 138.49 483.85 144.81 475.27 149.17C466.69 153.53 457.02 155.71 446.27 155.71ZM446.27 131.28C454.7 131.28 461.68 128.55 467.21 123.1C472.73 117.65 475.5 109.83 475.5 99.6599V97.4799C475.5 87.2999 472.77 79.4899 467.32 74.0399C461.87 68.5899 454.85 65.8599 446.27 65.8599C437.69 65.8599 430.86 68.5899 425.33 74.0399C419.8 79.4899 417.04 87.3099 417.04 97.4799V99.6599C417.04 109.84 419.8 117.65 425.33 123.1C430.85 128.55 437.83 131.28 446.27 131.28Z" fill="#010101"/>
<path d="M574.94 155.71C564.18 155.71 554.51 153.53 545.93 149.17C537.35 144.81 530.59 138.48 525.65 130.2C520.71 121.91 518.24 111.96 518.24 100.32V96.8299C518.24 85.1999 520.71 75.2399 525.65 66.9499C530.59 58.6599 537.35 52.3399 545.93 47.9799C554.51 43.6199 564.17 41.4399 574.94 41.4399C585.71 41.4399 595.36 43.6199 603.94 47.9799C612.52 52.3399 619.28 58.6699 624.22 66.9499C629.16 75.2399 631.63 85.1999 631.63 96.8299V100.32C631.63 111.95 629.16 121.91 624.22 130.2C619.28 138.49 612.52 144.81 603.94 149.17C595.36 153.53 585.69 155.71 574.94 155.71ZM574.94 131.28C583.37 131.28 590.35 128.55 595.88 123.1C601.4 117.65 604.17 109.83 604.17 99.6599V97.4799C604.17 87.2999 601.44 79.4899 595.99 74.0399C590.54 68.5899 583.52 65.8599 574.94 65.8599C566.36 65.8599 559.53 68.5899 554 74.0399C548.47 79.4899 545.71 87.3099 545.71 97.4799V99.6599C545.71 109.84 548.47 117.65 554 123.1C559.52 128.55 566.5 131.28 574.94 131.28Z" fill="#010101"/>
<path d="M666.53 152.66V67.17H639.05V44.49H666.53V24.43C666.53 17.02 668.75 11.09 673.18 6.66001C677.61 2.23001 683.39 0.0100098 690.52 0.0100098H718.87V22.69H700.12C696.05 22.69 694.01 24.87 694.01 29.23V44.5H722.36V67.18H694.01V152.67H666.53V152.66Z" fill="#010101"/>
<path d="M726.556 152.245H728.356V146.773L728.248 143.605H728.356L732.28 152.101L736.24 143.605H736.348L736.204 146.773V152.245H738.04V141.085H735.628L732.316 148.501H732.244L728.896 141.085H726.556V152.245ZM719.608 152.245H721.444V142.777H724.9V141.085H716.296V142.777H719.608V152.245Z" fill="#010101"/>
</svg>
